<?xml version="1.0" encoding="UTF-8"?>
<svg xmlns="http://www.w3.org/2000/svg" xmlns:xlink="http://www.w3.org/1999/xlink" width="660.73pt" height="651.97pt" viewBox="0 0 660.73 651.97" version="1.1">
<defs>
<clipPath id="clip1">
  <path d="M 0 0 L 660.730469 0 L 660.730469 651.96875 L 0 651.96875 Z M 0 0 "/>
</clipPath>
</defs>
<g id="surface1">
<g clip-path="url(#clip1)" clip-rule="nonzero">
<path style=" stroke:none;fill-rule:nonzero;fill:rgb(0%,0%,0%);fill-opacity:1;" d="M 53.75 2.753906 L 635.464844 96.414063 C 635.464844 96.414063 640.585938 97.027344 640.835938 103.632813 C 641.199219 113.714844 660.726563 551.878906 660.726563 551.878906 C 660.835938 556.683594 655.640625 561.332031 654.148438 562.335938 C 654.148438 562.335938 654.988281 563.792969 655.015625 566.023438 C 655.15625 576.992188 653.378906 621.902344 653.488281 627.128906 C 653.746094 638.984375 646.976563 651.96875 632.195313 651.96875 C 621.644531 651.96875 32.308594 651.96875 27.859375 651.96875 C 19.476563 651.96875 0 647.125 0 617.300781 C 0.625 604.125 5.183594 33.148438 5.183594 33.148438 C 5.183594 33.148438 5.183594 28.980469 5.183594 22.648438 C 5.183594 16.4375 11.257813 13.539063 27.3125 6.597656 C 34.6875 3.40625 42.488281 0.570313 47.371094 0.0976563 C 51.957031 -0.347656 51.214844 0.792969 53.75 2.753906 "/>
</g>
<path style=" stroke:none;fill-rule:nonzero;fill:rgb(92.89856%,10.998535%,14.099121%);fill-opacity:1;" d="M 58.089844 500.71875 L 651.660156 515.519531 L 653.332031 550.804688 L 588.535156 554.152344 C 588.535156 554.152344 585.878906 554.246094 584.574219 555.78125 C 583.269531 557.320313 583.492188 559.507813 583.492188 559.507813 L 583.359375 613.96875 L 58.089844 610.210938 L 58.089844 500.71875 "/>
<path style=" stroke:none;fill-rule:nonzero;fill:rgb(100%,100%,100%);fill-opacity:1;" d="M 592.5625 609.589844 L 592.433594 563.507813 L 642.785156 560.625 Z M 592.5625 609.589844 "/>
<path style=" stroke:none;fill-rule:nonzero;fill:rgb(100%,100%,100%);fill-opacity:1;" d="M 58.675781 7.953125 L 58.089844 500.71875 L 651.660156 515.519531 L 632.519531 103.734375 L 58.675781 7.953125 "/>
<path style=" stroke:none;fill-rule:nonzero;fill:rgb(0%,0%,0%);fill-opacity:1;" d="M 453.785156 115.003906 C 449.347656 121.21875 440.902344 121.121094 433.933594 117.585938 C 425.84375 113.484375 422.605469 104.628906 425.640625 98.53125 C 428.675781 92.4375 437.71875 90.773438 445.835938 94.816406 C 453.957031 98.859375 457.738281 109.460938 453.785156 115.003906 "/>
<path style=" stroke:none;fill-rule:nonzero;fill:rgb(0%,0%,0%);fill-opacity:1;" d="M 255.746094 66.339844 C 260.449219 73.746094 259.824219 81.96875 253.335938 86.085938 C 246.847656 90.207031 235.609375 87.636719 230.90625 80.226563 C 226.203125 72.816406 227.203125 63.917969 233.691406 59.800781 C 240.179688 55.679688 251.042969 58.929688 255.746094 66.339844 "/>
<path style=" stroke:none;fill-rule:nonzero;fill:rgb(13.699341%,12.199402%,12.5%);fill-opacity:1;" d="M 201.523438 416.664063 L 216.722656 417.277344 L 216.722656 420.363281 L 205.050781 419.902344 L 205.050781 427.488281 L 216.382813 427.925781 L 216.382813 431.011719 L 205.050781 430.582031 L 205.050781 440.835938 L 216.722656 441.253906 L 216.722656 444.339844 L 201.523438 443.800781 L 201.523438 416.664063 "/>
<path style=" stroke:none;fill-rule:nonzero;fill:rgb(13.699341%,12.199402%,12.5%);fill-opacity:1;" d="M 225.539063 441.570313 L 234.136719 441.878906 L 234.136719 444.957031 L 222.011719 444.527344 L 222.011719 417.492188 L 225.539063 417.632813 L 225.539063 441.570313 "/>
<path style=" stroke:none;fill-rule:nonzero;fill:rgb(13.699341%,12.199402%,12.5%);fill-opacity:1;" d="M 252.671875 421.796875 L 252.671875 429.355469 L 262.503906 429.730469 L 262.503906 432.792969 L 252.671875 432.421875 L 252.671875 445.613281 L 249.144531 445.488281 L 249.144531 418.585938 L 262.84375 419.140625 L 262.84375 422.199219 L 252.671875 421.796875 "/>
<path style=" stroke:none;fill-rule:nonzero;fill:rgb(13.699341%,12.199402%,12.5%);fill-opacity:1;" d="M 271.324219 446.273438 L 267.796875 446.148438 L 267.796875 419.339844 L 271.324219 419.480469 L 271.324219 446.273438 "/>
<path style=" stroke:none;fill-rule:nonzero;fill:rgb(13.699341%,12.199402%,12.5%);fill-opacity:1;" d="M 277.214844 418.441406 L 298.457031 440.269531 L 298.457031 420.578125 L 301.984375 420.71875 L 301.984375 448.453125 L 280.742188 426.671875 L 280.742188 446.605469 L 277.214844 446.480469 L 277.214844 418.441406 "/>
<path style=" stroke:none;fill-rule:nonzero;fill:rgb(13.699341%,12.199402%,12.5%);fill-opacity:1;" d="M 322.964844 445.074219 L 324.199219 445.117188 C 331.40625 445.378906 337.636719 443.074219 337.636719 435.390625 C 337.636719 427.667969 331.40625 424.925781 324.199219 424.640625 L 322.964844 424.59375 Z M 319.433594 421.421875 L 325.289063 421.660156 C 333.960938 422.007813 341.164063 426.578125 341.164063 435.382813 C 341.164063 444.394531 334.109375 448.496094 325.175781 448.179688 L 319.433594 447.976563 L 319.433594 421.421875 "/>
<path style=" stroke:none;fill-rule:nonzero;fill:rgb(13.699341%,12.199402%,12.5%);fill-opacity:1;" d="M 345.628906 422.480469 L 360.828125 423.09375 L 360.828125 426.097656 L 349.15625 425.632813 L 349.15625 433.023438 L 360.492188 433.460938 L 360.492188 436.464844 L 349.15625 436.035156 L 349.15625 446.015625 L 360.828125 446.4375 L 360.828125 449.441406 L 345.628906 448.902344 L 345.628906 422.480469 "/>
<path style=" stroke:none;fill-rule:nonzero;fill:rgb(13.699341%,12.199402%,12.5%);fill-opacity:1;" d="M 390.476563 429.257813 C 389.425781 427.585938 388.074219 426.695313 385.933594 426.609375 C 383.683594 426.519531 381.207031 427.847656 381.207031 430.144531 C 381.207031 432.199219 383.382813 433.363281 385.144531 434.058594 L 387.171875 434.867188 C 391.1875 436.480469 394.191406 438.640625 394.191406 443.015625 C 394.191406 447.773438 390.214844 451.039063 385.144531 450.859375 C 380.566406 450.695313 377.003906 447.4375 376.402344 443.199219 L 379.96875 442.632813 C 379.929688 445.519531 382.40625 447.699219 385.445313 447.808594 C 388.488281 447.917969 390.664063 445.632813 390.664063 442.886719 C 390.664063 440.074219 388.222656 438.765625 385.785156 437.734375 L 383.832031 436.894531 C 380.605469 435.484375 377.679688 433.664063 377.679688 430.007813 C 377.679688 425.757813 381.730469 423.378906 386.011719 423.550781 C 389.160156 423.679688 391.753906 425.210938 393.289063 427.804688 L 390.476563 429.257813 "/>
<path style=" stroke:none;fill-rule:nonzero;fill:rgb(13.699341%,12.199402%,12.5%);fill-opacity:1;" d="M 398.992188 424.632813 L 414.191406 425.246094 L 414.191406 428.222656 L 402.519531 427.757813 L 402.519531 435.070313 L 413.855469 435.507813 L 413.855469 438.484375 L 402.519531 438.054688 L 402.519531 447.9375 L 414.191406 448.355469 L 414.191406 451.332031 L 398.992188 450.792969 L 398.992188 424.632813 "/>
<path style=" stroke:none;fill-rule:nonzero;fill:rgb(13.699341%,12.199402%,12.5%);fill-opacity:1;" d="M 424.289063 434.492188 L 424.214844 434.488281 L 420.910156 451.566406 L 417.269531 451.441406 L 423.050781 424.5 L 432.769531 445.371094 L 442.488281 425.285156 L 448.269531 452.535156 L 444.628906 452.40625 L 441.324219 435.152344 L 441.253906 435.148438 L 432.769531 452.539063 L 424.289063 434.492188 "/>
<path style=" stroke:none;fill-rule:nonzero;fill:rgb(13.699341%,12.199402%,12.5%);fill-opacity:1;" d="M 462.867188 433.175781 L 457.839844 443.441406 L 467.894531 443.816406 Z M 456.375 446.335938 L 453.148438 452.710938 L 449.355469 452.574219 L 462.867188 426.113281 L 476.378906 453.53125 L 472.589844 453.398438 L 469.359375 446.8125 L 456.375 446.335938 "/>
<path style=" stroke:none;fill-rule:nonzero;fill:rgb(13.699341%,12.199402%,12.5%);fill-opacity:1;" d="M 479.34375 426.644531 L 500.585938 447.683594 L 500.585938 428.730469 L 504.109375 428.875 L 504.109375 455.566406 L 482.871094 434.574219 L 482.871094 453.761719 L 479.34375 453.636719 L 479.34375 426.644531 "/>
<path style=" stroke:none;fill-rule:nonzero;fill:rgb(13.699341%,12.199402%,12.5%);fill-opacity:1;" d="M 520.585938 435.4375 L 515.558594 445.589844 L 525.613281 445.960938 Z M 514.09375 448.453125 L 510.863281 454.753906 L 507.074219 454.617188 L 520.585938 428.453125 L 534.097656 455.574219 L 530.304688 455.441406 L 527.078125 448.929688 L 514.09375 448.453125 "/>
<path style=" stroke:none;fill-rule:nonzero;fill:rgb(13.699341%,12.199402%,12.5%);fill-opacity:1;" d="M 168.179688 462.007813 L 168.105469 462.007813 L 164.800781 479.945313 L 161.160156 479.839844 L 166.941406 451.539063 L 176.660156 473.34375 L 186.378906 452.195313 L 192.160156 480.726563 L 188.519531 480.625 L 185.21875 462.554688 L 185.140625 462.550781 L 176.660156 480.863281 L 168.179688 462.007813 "/>
<path style=" stroke:none;fill-rule:nonzero;fill:rgb(13.699341%,12.199402%,12.5%);fill-opacity:1;" d="M 212.164063 447.140625 L 206.007813 452.285156 L 204.355469 451.257813 L 209.046875 445.449219 Z M 206.757813 460.292969 L 201.730469 471.105469 L 211.785156 471.410156 Z M 200.265625 474.15625 L 197.039063 480.867188 L 193.246094 480.757813 L 206.757813 452.882813 L 220.269531 481.53125 L 216.480469 481.425781 L 213.25 474.542969 L 200.265625 474.15625 "/>
<path style=" stroke:none;fill-rule:nonzero;fill:rgb(13.699341%,12.199402%,12.5%);fill-opacity:1;" d="M 236.144531 460.136719 C 235.09375 458.421875 233.742188 457.515625 231.601563 457.445313 C 229.351563 457.371094 226.871094 458.757813 226.871094 461.121094 C 226.871094 463.238281 229.050781 464.417969 230.8125 465.117188 L 232.839844 465.933594 C 236.855469 467.5625 239.859375 469.761719 239.859375 474.265625 C 239.859375 479.164063 235.878906 482.550781 230.8125 482.40625 C 226.234375 482.277344 222.671875 478.949219 222.070313 474.59375 L 225.632813 473.980469 C 225.597656 476.957031 228.074219 479.175781 231.113281 479.265625 C 234.152344 479.355469 236.328125 476.984375 236.328125 474.160156 C 236.328125 471.265625 233.890625 469.9375 231.453125 468.894531 L 229.5 468.046875 C 226.273438 466.621094 223.34375 464.773438 223.34375 461.007813 C 223.34375 456.636719 227.398438 454.15625 231.675781 454.300781 C 234.828125 454.40625 237.417969 455.960938 238.957031 458.621094 L 236.144531 460.136719 "/>
<path style=" stroke:none;fill-rule:nonzero;fill:rgb(13.699341%,12.199402%,12.5%);fill-opacity:1;" d="M 259.671875 479.667969 L 262.375 479.75 C 265.640625 479.84375 269.054688 479.019531 269.054688 475.214844 C 269.054688 471.445313 265 470.539063 261.847656 470.441406 L 259.671875 470.375 Z M 259.671875 467.703125 L 260.574219 467.734375 C 263.914063 467.839844 266.652344 467.285156 266.652344 463.441406 C 266.652344 459.671875 263.949219 458.945313 260.648438 458.835938 L 259.671875 458.804688 Z M 256.144531 455.691406 L 259.597656 455.808594 C 264.925781 455.988281 269.953125 457.472656 269.953125 463.515625 C 269.953125 465.46875 268.828125 467.707031 266.914063 468.503906 L 266.914063 468.574219 C 270.253906 469.246094 272.582031 472.410156 272.582031 475.535156 C 272.582031 480.898438 267.742188 482.890625 262.75 482.75 L 256.144531 482.558594 L 256.144531 455.691406 "/>
<path style=" stroke:none;fill-rule:nonzero;fill:rgb(13.699341%,12.199402%,12.5%);fill-opacity:1;" d="M 287.96875 462.925781 L 282.9375 473.574219 L 292.996094 473.882813 Z M 281.476563 476.582031 L 278.246094 483.191406 L 274.457031 483.085938 L 287.96875 455.628906 L 301.480469 483.855469 L 297.6875 483.75 L 294.460938 476.96875 L 281.476563 476.582031 "/>
<path style=" stroke:none;fill-rule:nonzero;fill:rgb(13.699341%,12.199402%,12.5%);fill-opacity:1;" d="M 308.308594 470.042969 L 309.433594 470.078125 C 313.035156 470.191406 316.9375 469.679688 316.9375 465.449219 C 316.9375 461.292969 312.734375 460.554688 309.246094 460.441406 L 308.308594 460.410156 Z M 322.382813 484.457031 L 318.101563 484.332031 L 309.769531 472.839844 L 308.308594 472.796875 L 308.308594 484.050781 L 304.78125 483.953125 L 304.78125 457.324219 L 309.058594 457.46875 C 311.574219 457.554688 314.273438 457.679688 316.527344 458.953125 C 318.890625 460.335938 320.242188 462.878906 320.242188 465.414063 C 320.242188 469.21875 317.539063 472.304688 313.449219 472.636719 L 322.382813 484.457031 "/>
<path style=" stroke:none;fill-rule:nonzero;fill:rgb(13.699341%,12.199402%,12.5%);fill-opacity:1;" d="M 336.605469 464.503906 L 331.574219 475.054688 L 341.632813 475.363281 Z M 330.113281 478.035156 L 326.886719 484.585938 L 323.09375 484.476563 L 336.605469 457.269531 L 350.113281 485.25 L 346.324219 485.140625 L 343.097656 478.421875 L 330.113281 478.035156 "/>
<path style=" stroke:none;fill-rule:nonzero;fill:rgb(13.699341%,12.199402%,12.5%);fill-opacity:1;" d="M 358.03125 485.476563 L 354.507813 485.375 L 354.507813 462.003906 L 347.789063 461.78125 L 347.789063 458.769531 L 364.75 459.339844 L 364.75 462.34375 L 358.03125 462.121094 L 358.03125 485.476563 "/>
<path style=" stroke:none;fill-rule:nonzero;fill:rgb(13.699341%,12.199402%,12.5%);fill-opacity:1;" d="M 392.597656 473.371094 C 392.597656 467.601563 387.941406 462.621094 381.300781 462.402344 C 374.65625 462.179688 370.003906 466.878906 370.003906 472.667969 C 370.003906 478.667969 375.183594 483.457031 381.300781 483.636719 C 387.417969 483.8125 392.597656 479.34375 392.597656 473.371094 Z M 396.125 473.480469 C 396.125 481.253906 389.480469 486.933594 381.300781 486.699219 C 373.117188 486.464844 366.476563 480.378906 366.476563 472.558594 C 366.476563 465.015625 373.195313 459.066406 381.300781 459.335938 C 389.40625 459.609375 396.125 465.980469 396.125 473.480469 "/>
<path style=" stroke:none;fill-rule:nonzero;fill:rgb(13.699341%,12.199402%,12.5%);fill-opacity:1;" d="M 415.488281 484.144531 L 416.726563 484.183594 C 423.933594 484.390625 430.160156 482.089844 430.160156 474.539063 C 430.160156 466.949219 423.933594 464.296875 416.726563 464.058594 L 415.488281 464.015625 Z M 411.960938 460.921875 L 417.8125 461.121094 C 426.484375 461.410156 433.691406 465.859375 433.691406 474.507813 C 433.691406 483.367188 426.636719 487.4375 417.703125 487.183594 L 411.960938 487.019531 L 411.960938 460.921875 "/>
<path style=" stroke:none;fill-rule:nonzero;fill:rgb(13.699341%,12.199402%,12.5%);fill-opacity:1;" d="M 438.15625 461.804688 L 453.355469 462.3125 L 453.355469 465.265625 L 441.683594 464.882813 L 441.683594 472.140625 L 453.015625 472.5 L 453.015625 475.453125 L 441.683594 475.101563 L 441.683594 484.910156 L 453.355469 485.253906 L 453.355469 488.203125 L 438.15625 487.769531 L 438.15625 461.804688 "/>
<path style=" stroke:none;fill-rule:nonzero;fill:rgb(13.699341%,12.199402%,12.5%);fill-opacity:1;" d="M 462.175781 485.507813 L 470.769531 485.757813 L 470.769531 488.703125 L 458.644531 488.355469 L 458.644531 462.492188 L 462.175781 462.609375 L 462.175781 485.507813 "/>
<path style=" stroke:none;fill-rule:nonzero;fill:rgb(13.699341%,12.199402%,12.5%);fill-opacity:1;" d="M 496.324219 469.679688 L 491.296875 479.914063 L 501.351563 480.222656 Z M 489.832031 482.804688 L 486.605469 489.15625 L 482.8125 489.046875 L 496.324219 462.664063 L 509.835938 489.820313 L 506.042969 489.710938 L 502.816406 483.191406 L 489.832031 482.804688 "/>
<path style=" stroke:none;fill-rule:nonzero;fill:rgb(13.699341%,12.199402%,12.5%);fill-opacity:1;" d="M 518.015625 460.414063 L 518.128906 460.25 C 519.140625 458.960938 520.191406 457.742188 522.179688 457.8125 C 523.457031 457.855469 524.546875 458.300781 525.519531 458.808594 C 526.496094 459.316406 527.398438 459.789063 528.222656 459.816406 C 529.3125 459.855469 530.101563 459.035156 530.625 458.277344 L 532.390625 459.65625 C 531.523438 461.214844 530.023438 462.347656 527.960938 462.277344 C 526.910156 462.242188 525.859375 461.765625 524.847656 461.292969 C 523.867188 460.851563 522.894531 460.378906 521.917969 460.34375 C 520.980469 460.3125 520.152344 461.132813 519.777344 461.832031 Z M 512.796875 463.085938 L 534.039063 483.851563 L 534.039063 465.023438 L 537.566406 465.140625 L 537.566406 491.660156 L 516.324219 470.941406 L 516.324219 490.007813 L 512.796875 489.90625 L 512.796875 463.085938 "/>
<path style=" stroke:none;fill-rule:nonzero;fill:rgb(13.699341%,12.199402%,12.5%);fill-opacity:1;" d="M 567.664063 478.8125 C 567.664063 473.238281 563.011719 468.414063 556.367188 468.195313 C 549.726563 467.976563 545.070313 472.511719 545.070313 478.109375 C 545.070313 483.914063 550.253906 488.550781 556.367188 488.730469 C 562.484375 488.90625 567.664063 484.589844 567.664063 478.8125 Z M 571.191406 478.921875 C 571.191406 486.441406 564.550781 491.925781 556.367188 491.691406 C 548.1875 491.457031 541.546875 485.5625 541.546875 478 C 541.546875 470.710938 548.261719 464.960938 556.367188 465.234375 C 564.476563 465.503906 571.191406 471.671875 571.191406 478.921875 "/>
<path style=" stroke:none;fill-rule:nonzero;fill:rgb(100%,100%,100%);fill-opacity:1;" d="M 118.226563 544.125 L 112.921875 544.089844 L 115.492188 539.753906 L 122.886719 539.800781 L 122.699219 570.484375 L 118.070313 570.457031 L 118.226563 544.125 "/>
<path style=" stroke:none;fill-rule:nonzero;fill:rgb(100%,100%,100%);fill-opacity:1;" d="M 147.003906 561.191406 C 147.011719 559.5625 146.457031 558.179688 145.335938 557.046875 C 144.203125 555.898438 142.835938 555.324219 141.234375 555.3125 C 139.617188 555.304688 138.242188 555.855469 137.109375 556.976563 C 135.976563 558.097656 135.40625 559.457031 135.394531 561.0625 C 135.386719 562.664063 135.941406 564.03125 137.0625 565.164063 C 138.179688 566.296875 139.554688 566.867188 141.183594 566.878906 C 142.773438 566.886719 144.136719 566.335938 145.269531 565.214844 C 146.414063 564.082031 146.992188 562.742188 147.003906 561.191406 Z M 144.753906 538.859375 L 148.136719 541.421875 L 140.742188 551.355469 C 141.140625 551.304688 141.476563 551.265625 141.753906 551.242188 C 142.035156 551.21875 142.253906 551.203125 142.410156 551.207031 C 144.902344 551.21875 147.050781 552.1875 148.851563 554.105469 C 150.644531 556 151.53125 558.269531 151.515625 560.917969 C 151.496094 563.730469 150.476563 566.132813 148.449219 568.136719 C 146.4375 570.125 144.027344 571.109375 141.21875 571.09375 C 138.4375 571.074219 136.003906 570.074219 133.921875 568.085938 C 131.882813 566.101563 130.867188 563.757813 130.886719 561.054688 C 130.898438 558.628906 131.914063 556.0625 133.933594 553.359375 L 144.753906 538.859375 "/>
<path style=" stroke:none;fill-rule:nonzero;fill:rgb(100%,100%,100%);fill-opacity:1;" d="M 166.332031 558.960938 L 175.195313 559.015625 L 175.171875 562.910156 L 166.308594 562.855469 L 166.332031 558.960938 "/>
<path style=" stroke:none;fill-rule:nonzero;fill:rgb(100%,100%,100%);fill-opacity:1;" d="M 198.871094 544.609375 L 193.566406 544.578125 L 196.136719 540.242188 L 203.53125 540.285156 L 203.34375 570.972656 L 198.714844 570.941406 L 198.871094 544.609375 "/>
<path style=" stroke:none;fill-rule:nonzero;fill:rgb(100%,100%,100%);fill-opacity:1;" d="M 216.390625 549.765625 C 216.378906 551.421875 216.933594 552.816406 218.054688 553.949219 C 219.1875 555.09375 220.554688 555.671875 222.15625 555.683594 C 223.761719 555.691406 225.128906 555.136719 226.261719 554.019531 C 227.40625 552.886719 227.984375 551.519531 227.996094 549.914063 C 228.007813 548.3125 227.445313 546.9375 226.3125 545.789063 C 225.191406 544.660156 223.824219 544.085938 222.207031 544.078125 C 220.617188 544.066406 219.257813 544.621094 218.125 545.742188 C 216.976563 546.875 216.398438 548.214844 216.390625 549.765625 Z M 218.640625 572.117188 L 215.257813 569.574219 L 222.648438 559.621094 C 222.253906 559.671875 221.914063 559.710938 221.636719 559.734375 C 221.359375 559.757813 221.132813 559.769531 220.960938 559.769531 C 218.480469 559.753906 216.34375 558.792969 214.539063 556.890625 C 212.75 554.996094 211.859375 552.726563 211.878906 550.074219 C 211.894531 547.253906 212.910156 544.847656 214.921875 542.859375 C 216.945313 540.859375 219.363281 539.867188 222.175781 539.882813 C 224.96875 539.898438 227.394531 540.90625 229.449219 542.90625 C 231.503906 544.894531 232.523438 547.234375 232.507813 549.921875 C 232.492188 552.308594 231.46875 554.878906 229.4375 557.632813 L 218.640625 572.117188 "/>
<path style=" stroke:none;fill-rule:nonzero;fill:rgb(100%,100%,100%);fill-opacity:1;" d="M 255.519531 566.933594 L 257.605469 566.945313 C 259.683594 566.960938 261.414063 566.753906 262.796875 566.324219 C 264.175781 565.867188 265.425781 565.140625 266.546875 564.140625 C 268.835938 562.074219 269.992188 559.371094 270.011719 556.03125 C 270.03125 552.667969 268.921875 549.929688 266.683594 547.824219 C 264.667969 545.941406 261.683594 544.992188 257.738281 544.96875 L 255.648438 544.953125 Z M 250.859375 571.257813 L 251.046875 540.574219 L 257.484375 540.613281 C 260.570313 540.632813 263.007813 540.953125 264.792969 541.570313 C 266.710938 542.179688 268.445313 543.203125 270 544.644531 C 273.148438 547.550781 274.710938 551.355469 274.683594 556.0625 C 274.652344 560.777344 272.980469 564.582031 269.664063 567.476563 C 268 568.925781 266.257813 569.929688 264.4375 570.488281 C 262.738281 571.046875 260.332031 571.316406 257.21875 571.296875 L 250.859375 571.257813 "/>
<path style=" stroke:none;fill-rule:nonzero;fill:rgb(100%,100%,100%);fill-opacity:1;" d="M 297.503906 545.207031 L 285.199219 545.132813 L 285.15625 552.507813 L 297.101563 552.578125 L 297.074219 556.929688 L 285.128906 556.859375 L 285.066406 567.113281 L 297.371094 567.1875 L 297.34375 571.539063 L 280.410156 571.4375 L 280.597656 540.753906 L 297.527344 540.855469 L 297.503906 545.207031 "/>
<path style=" stroke:none;fill-rule:nonzero;fill:rgb(100%,100%,100%);fill-opacity:1;" d="M 315.984375 571.652344 L 316.183594 538.882813 L 338.417969 562.429688 L 338.546875 541.105469 L 343.179688 541.132813 L 342.980469 573.683594 L 320.746094 550.199219 L 320.613281 571.679688 L 315.984375 571.652344 "/>
<path style=" stroke:none;fill-rule:nonzero;fill:rgb(100%,100%,100%);fill-opacity:1;" d="M 353.855469 556.449219 C 353.835938 559.839844 354.960938 562.632813 357.226563 564.832031 C 359.476563 567.027344 362.089844 568.136719 365.054688 568.152344 C 368.273438 568.171875 370.996094 567.078125 373.222656 564.867188 C 375.449219 562.628906 376.570313 559.898438 376.59375 556.667969 C 376.609375 553.398438 375.535156 550.652344 373.359375 548.425781 C 371.203125 546.1875 368.519531 545.0625 365.3125 545.042969 C 362.121094 545.023438 359.417969 546.117188 357.203125 548.328125 C 354.992188 550.511719 353.878906 553.21875 353.855469 556.449219 Z M 349.1875 556.371094 C 349.214844 552.050781 350.816406 548.351563 354.003906 545.273438 C 357.175781 542.191406 360.976563 540.664063 365.398438 540.691406 C 369.769531 540.714844 373.511719 542.300781 376.617188 545.449219 C 379.738281 548.59375 381.285156 552.359375 381.261719 556.746094 C 381.234375 561.15625 379.636719 564.890625 376.464844 567.945313 C 373.277344 571.011719 369.445313 572.53125 364.96875 572.503906 C 361.007813 572.480469 357.457031 571.089844 354.320313 568.328125 C 350.867188 565.273438 349.15625 561.289063 349.1875 556.371094 "/>
<path style=" stroke:none;fill-rule:nonzero;fill:rgb(100%,100%,100%);fill-opacity:1;" d="M 387.375 541.398438 L 395.730469 562.714844 L 404.464844 541.503906 L 409.53125 541.53125 L 395.5625 574.441406 L 382.308594 541.367188 L 387.375 541.398438 "/>
<path style=" stroke:none;fill-rule:nonzero;fill:rgb(100%,100%,100%);fill-opacity:1;" d="M 417.980469 541.585938 L 417.792969 572.269531 L 413.164063 572.242188 L 413.351563 541.554688 L 417.980469 541.585938 "/>
<path style=" stroke:none;fill-rule:nonzero;fill:rgb(100%,100%,100%);fill-opacity:1;" d="M 442.257813 546.085938 L 429.957031 546.007813 L 429.910156 553.382813 L 441.855469 553.457031 L 441.828125 557.804688 L 429.886719 557.734375 L 429.824219 567.988281 L 442.125 568.0625 L 442.097656 572.417969 L 425.167969 572.3125 L 425.355469 541.628906 L 442.28125 541.730469 L 442.257813 546.085938 "/>
<path style=" stroke:none;fill-rule:nonzero;fill:rgb(100%,100%,100%);fill-opacity:1;" d="M 447.105469 572.445313 L 453.765625 539.496094 L 464.152344 563.40625 L 475.210938 539.625 L 480.8125 572.648438 L 476.0625 572.621094 L 473.214844 554.082031 L 464.011719 573.960938 L 455.308594 553.953125 L 451.894531 572.476563 L 447.105469 572.445313 "/>
<path style=" stroke:none;fill-rule:nonzero;fill:rgb(100%,100%,100%);fill-opacity:1;" d="M 492.046875 555.210938 L 493.496094 555.21875 C 495.222656 555.226563 496.484375 554.855469 497.289063 554.097656 C 498.097656 553.339844 498.503906 552.21875 498.515625 550.738281 C 498.519531 549.292969 498.117188 548.191406 497.300781 547.441406 C 496.484375 546.6875 495.292969 546.304688 493.730469 546.296875 L 492.101563 546.285156 Z M 491.96875 568.363281 L 494.828125 568.382813 C 496.921875 568.394531 498.460938 567.992188 499.445313 567.179688 C 500.484375 566.296875 501.011719 565.171875 501.019531 563.808594 C 501.023438 562.484375 500.535156 561.367188 499.546875 560.460938 C 498.585938 559.566406 496.859375 559.113281 494.367188 559.097656 L 492.023438 559.085938 Z M 487.3125 572.6875 L 487.496094 542.003906 L 492.105469 542.03125 C 494.160156 542.046875 495.796875 542.214844 497.011719 542.539063 C 498.242188 542.863281 499.277344 543.40625 500.121094 544.167969 C 500.980469 544.953125 501.652344 545.933594 502.152344 547.101563 C 502.660156 548.285156 502.910156 549.476563 502.902344 550.683594 C 502.890625 552.882813 502.039063 554.738281 500.347656 556.253906 C 501.976563 556.820313 503.253906 557.800781 504.1875 559.195313 C 505.132813 560.582031 505.597656 562.1875 505.589844 564.015625 C 505.570313 566.414063 504.714844 568.4375 503.007813 570.082031 C 501.980469 571.09375 500.828125 571.796875 499.558594 572.1875 C 498.160156 572.5625 496.417969 572.746094 494.324219 572.730469 L 487.3125 572.6875 "/>
<path style=" stroke:none;fill-rule:nonzero;fill:rgb(100%,100%,100%);fill-opacity:1;" d="M 516.105469 556.269531 L 517.578125 556.277344 C 521.964844 556.304688 524.164063 554.640625 524.1875 551.289063 C 524.203125 548.148438 522.082031 546.566406 517.816406 546.539063 L 516.164063 546.53125 Z M 521.851563 559.820313 L 531.269531 572.957031 L 525.605469 572.921875 L 516.917969 560.308594 L 516.082031 560.304688 L 516.007813 572.863281 L 511.378906 572.835938 L 511.5625 542.152344 L 516.984375 542.183594 C 521.039063 542.207031 523.964844 542.988281 525.757813 544.523438 C 527.734375 546.230469 528.714844 548.476563 528.695313 551.257813 C 528.6875 553.429688 528.050781 555.292969 526.796875 556.851563 C 525.539063 558.40625 523.894531 559.398438 521.851563 559.820313 "/>
<path style=" stroke:none;fill-rule:nonzero;fill:rgb(100%,100%,100%);fill-opacity:1;" d="M 552.972656 546.753906 L 540.671875 546.679688 L 540.625 554.050781 L 552.566406 554.125 L 552.542969 558.476563 L 540.601563 558.402344 L 540.535156 568.660156 L 552.839844 568.734375 L 552.8125 573.085938 L 535.882813 572.984375 L 536.066406 542.296875 L 552.996094 542.402344 L 552.972656 546.753906 "/>
<path style=" stroke:none;fill-rule:nonzero;fill:rgb(0%,0%,0%);fill-opacity:1;" d="M 152.515625 241.820313 L 249.191406 251.6875 L 249.191406 282.183594 L 189.296875 275.996094 L 189.949219 303.992188 L 245.9375 308.550781 L 246.664063 336.894531 L 190.023438 333.3125 L 190.445313 388.398438 L 153.941406 387.976563 L 152.515625 241.820313 "/>
<path style=" stroke:none;fill-rule:nonzero;fill:rgb(0%,0%,0%);fill-opacity:1;" d="M 259.394531 252.453125 L 295.988281 256.085938 L 299.136719 392.847656 L 262.0625 391.304688 L 259.394531 252.453125 "/>
<path style=" stroke:none;fill-rule:nonzero;fill:rgb(0%,0%,0%);fill-opacity:1;" d="M 314.160156 257.785156 L 355.113281 261.660156 L 415.453125 350.835938 L 412.546875 267.234375 L 445.742188 270.867188 L 450.832031 399.058594 L 408.425781 397.847656 L 349.390625 309.835938 L 351.78125 395.042969 L 317.554688 393.96875 L 314.160156 257.785156 "/>
<path style=" stroke:none;fill-rule:nonzero;fill:rgb(92.89856%,10.998535%,14.099121%);fill-opacity:1;" d="M 500.199219 315.222656 C 498.949219 322.867188 491.503906 327.988281 482.246094 326.476563 C 472.992188 324.964844 466.136719 316.65625 467.386719 309.011719 C 468.632813 301.367188 476.238281 297.480469 485.492188 298.992188 C 494.75 300.503906 501.445313 307.578125 500.199219 315.222656 "/>
<path style=" stroke:none;fill-rule:nonzero;fill:rgb(92.89856%,10.998535%,14.099121%);fill-opacity:1;" d="M 503.007813 372.253906 C 501.753906 379.914063 494.304688 385.046875 485.050781 383.535156 C 475.796875 382.023438 468.941406 373.703125 470.191406 366.042969 C 471.445313 358.378906 479.050781 354.484375 488.304688 355.996094 C 497.5625 357.507813 504.257813 364.59375 503.007813 372.253906 "/>
<path style=" stroke:none;fill-rule:nonzero;fill:rgb(0%,0%,0%);fill-opacity:1;" d="M 203.730469 212.515625 C 201.710938 214.691406 197.183594 215.808594 193.324219 215.320313 C 188.457031 214.703125 179.203125 213.535156 179.203125 213.535156 L 179.234375 189.847656 L 193.292969 191.160156 C 198.597656 191.84375 201.222656 193.722656 203.1875 195.820313 C 208.664063 201.65625 205.753906 210.339844 203.730469 212.515625 Z M 178.390625 146.085938 L 189.960938 147.542969 C 198.515625 149.03125 201.019531 154.320313 200.964844 157.730469 C 200.902344 161.402344 201.011719 163.492188 199.378906 165.941406 C 197.941406 168.097656 195.695313 169.792969 191.378906 169.546875 C 187.601563 169.332031 178.671875 168.273438 178.671875 168.273438 Z M 232.625 192.5 C 230.355469 188.726563 222.808594 183.265625 217.308594 181.671875 C 215.667969 181.191406 215.011719 181.125 214.3125 180.34375 C 217.886719 179.882813 225.5 176.347656 227.785156 173.085938 C 231.214844 168.1875 232.121094 164.644531 232.121094 157.722656 C 232.121094 139.003906 218.382813 130.476563 205.828125 128.191406 C 193.683594 125.984375 150.425781 119.933594 150.425781 119.933594 L 150.789063 233.765625 C 150.789063 233.765625 186.515625 238.226563 204.625 238.226563 C 229.28125 238.226563 236.929688 222.484375 236.929688 211.148438 C 236.929688 203.691406 235.621094 197.476563 232.625 192.5 "/>
<path style=" stroke:none;fill-rule:nonzero;fill:rgb(0%,0%,0%);fill-opacity:1;" d="M 314.21875 143.667969 L 342.226563 147.539063 L 344.34375 203.09375 C 344.34375 209.824219 344.792969 216.550781 343.761719 222.71875 C 342.722656 228.9375 340.007813 235.34375 335.730469 239.824219 C 331.445313 244.300781 325.148438 250.886719 300.089844 250.886719 C 284.449219 250.886719 267.769531 245.460938 257.871094 236.839844 C 245.914063 226.425781 244.738281 207.609375 244.738281 202.019531 L 244.097656 133.429688 L 271.210938 137.496094 L 273.195313 205.714844 C 273.195313 221.117188 286.683594 227.105469 295.78125 227.105469 C 303.261719 227.105469 308.691406 226.238281 311.980469 222.796875 C 315.273438 219.355469 316.046875 215.429688 316.046875 209.117188 L 314.21875 143.667969 "/>
<path style=" stroke:none;fill-rule:nonzero;fill:rgb(0%,0%,0%);fill-opacity:1;" d="M 356.597656 149.65625 L 433.253906 160.921875 L 433.953125 182.546875 L 385.441406 176.113281 L 385.550781 194.546875 L 431.789063 200.363281 L 432.296875 221.378906 L 386.769531 215.957031 L 386.929688 235.453125 L 437.003906 240.53125 L 437.449219 262.703125 L 360.066406 254.890625 L 356.597656 149.65625 "/>
<path style=" stroke:none;fill-rule:nonzero;fill:rgb(0%,0%,0%);fill-opacity:1;" d="M 445.179688 162.855469 L 476.867188 167.332031 L 524.335938 236.675781 L 521.695313 173.992188 L 547.492188 177.914063 L 552.316406 274.054688 L 519.664063 270.894531 L 472.546875 202.441406 L 474.777344 266.445313 L 449.226563 263.851563 L 445.179688 162.855469 "/>
<path style=" stroke:none;fill-rule:nonzero;fill:rgb(92.89856%,10.998535%,14.099121%);fill-opacity:1;" d="M 515.191406 287.78125 C 515.191406 287.78125 522.382813 286.019531 528.160156 293.210938 C 533.941406 300.398438 550.957031 320.800781 550.957031 351.203125 C 550.957031 371.550781 536.007813 396.214844 528.453125 398.84375 C 528.453125 398.84375 516.960938 400.523438 519.609375 396.5625 C 521.222656 394.144531 525.257813 386.1875 526.53125 382.347656 C 528.691406 375.863281 532.84375 371.191406 532.84375 341.980469 C 532.84375 329.039063 524.742188 306.671875 516.0625 293.4375 C 516.0625 293.4375 512.265625 288.855469 515.191406 287.78125 "/>
</g>
</svg>
